# xmcd CD database file
#
# Track frame offsets:
#	150
#	32906
#	57698
#	91270
#	93345
#	122414
#	158139
#	181956
#	184291
#	207998
#	237633
#
# Disc length: 3600 seconds
#
# Revision: 0
# Processed by: cddbd v1.5.2PL0 Copyright (c) Steve Scherf et al.
# Submitted via: CDex 1.77
#
DISCID=980e0e0b
DTITLE=E. J. Strickland - Warriors for Peace
DYEAR=2018
DGENRE=Jazz
TTITLE0=Uvumilivu
TTITLE1=Warriors for Peace
TTITLE2=Midnight's Clearing
TTITLE3=Eclipse in 5 (Interlude)
TTITLE4=Let It Go
TTITLE5=Abandoned Discovery
TTITLE6=Understand What I Mean
TTITLE7=For Those Who Break the Silence (Interlude)
TTITLE8=When Time Passes By
TTITLE9=Coexistence
TTITLE10=Let It Go (Vocal)
EXTD=YEAR: 2018
EXTT0=
EXTT1=
EXTT2=
EXTT3=
EXTT4=
EXTT5=
EXTT6=
EXTT7=
EXTT8=
EXTT9=
EXTT10=
PLAYORDER=
